<svg width="26" height="26" viewBox="0 0 26 26" fill="none" xmlns="http://www.w3.org/2000/svg">
<g clip-path="url(#clip0_5_179)">
<path d="M12.793 0.520083H12.8897C15.2214 0.520083 17.4033 1.1576 19.2722 2.26728L19.215 2.23504C21.1609 3.3728 22.7365 4.9484 23.842 6.83392L23.8742 6.89424C24.9558 8.734 25.5944 10.9461 25.5944 13.3069C25.5944 18.9291 21.9721 23.7069 16.9343 25.4312L16.8438 25.4582C16.7783 25.479 16.7034 25.4905 16.6265 25.4905C16.458 25.4905 16.302 25.4343 16.1761 25.3407L16.1782 25.3418C16.0451 25.2222 15.9619 25.0495 15.9619 24.8571C15.9619 24.8519 15.9619 24.8467 15.9619 24.8426V24.8436C15.9619 24.8103 15.9647 24.3853 15.9702 23.5686C15.9758 22.7518 15.9785 22.0051 15.9785 21.3284C15.9858 21.2504 15.99 21.161 15.99 21.0694C15.99 20.2458 15.6541 19.5011 15.1122 18.9634C15.7549 18.9 16.3353 18.7939 16.8989 18.6462L16.8199 18.6639C17.4158 18.4975 17.9358 18.276 18.4184 17.9962L18.3861 18.0139C18.9145 17.7227 19.3617 17.3525 19.7298 16.9136L19.7361 16.9063C20.1229 16.4113 20.4256 15.8289 20.6097 15.1955L20.619 15.1591C20.8364 14.4488 20.9612 13.6324 20.9612 12.7869C20.9612 12.7401 20.9612 12.6922 20.9601 12.6454V12.6527C20.9601 12.6298 20.9612 12.6038 20.9612 12.5778C20.9612 11.2799 20.4599 10.0995 19.6414 9.21864L19.6445 9.22176C19.8193 8.76416 19.9201 8.23584 19.9201 7.6836C19.9201 7.00864 19.7693 6.37008 19.5 5.79704L19.5114 5.82408C19.3918 5.8012 19.2556 5.78768 19.1152 5.78768C18.7678 5.78768 18.4402 5.8688 18.149 6.01232L18.1615 6.00712C17.5708 6.22552 17.0653 6.47304 16.589 6.76216L16.6285 6.73928L15.9952 7.13864C15.0363 6.86408 13.9349 6.706 12.7972 6.706C11.6594 6.706 10.5581 6.86408 9.51391 7.15944L9.59815 7.13864C9.42065 7.01662 9.18457 6.86651 8.88991 6.68832C8.50199 6.46576 8.04335 6.25048 7.56703 6.06952L7.49839 6.04664C7.19367 5.88648 6.83279 5.79288 6.44903 5.79288C6.32007 5.79288 6.19319 5.80328 6.07047 5.82408L6.08399 5.822C5.82607 6.36696 5.67527 7.00656 5.67527 7.68152C5.67527 8.23376 5.77615 8.76312 5.96127 9.25088L5.95087 9.22072C5.13447 10.0985 4.63423 11.2789 4.63423 12.5768C4.63423 12.6028 4.63423 12.6298 4.63527 12.6558V12.6517C4.63423 12.6922 4.63423 12.739 4.63423 12.7869C4.63423 13.6282 4.75903 14.4415 4.99199 15.207L4.97639 15.1477C5.17295 15.8164 5.47143 16.3978 5.86039 16.9084L5.85103 16.8949C6.21919 17.3473 6.66431 17.7196 7.16871 17.9994L7.19159 18.0108C7.64087 18.2729 8.16191 18.4944 8.70999 18.6494L8.75783 18.6608C9.24247 18.7908 9.82279 18.8969 10.4166 18.9562L10.4645 18.9603C10.0162 19.4054 9.71775 20.0003 9.64911 20.6638L9.64807 20.6763C9.43279 20.7814 9.18215 20.8666 8.92111 20.9218L8.89927 20.9259C8.63303 20.979 8.32831 21.0091 8.01527 21.0091C7.99239 21.0091 7.96951 21.0091 7.94663 21.0091H7.94975C7.53999 21.0008 7.16351 20.8677 6.85255 20.6472L6.85879 20.6514C6.47295 20.382 6.16095 20.0326 5.94255 19.6259L5.93527 19.6103C5.72935 19.2609 5.45791 18.9718 5.13655 18.7502L5.12719 18.744C4.89319 18.5682 4.61759 18.431 4.32015 18.3488L4.30351 18.3446L3.97071 18.2947C3.94679 18.2926 3.91871 18.2916 3.89063 18.2916C3.74503 18.2916 3.60671 18.3207 3.48087 18.3717L3.48815 18.3686C3.3994 18.4185 3.37167 18.4823 3.40495 18.5599C3.44551 18.6494 3.49543 18.7263 3.55575 18.7939L3.55471 18.7929C3.61815 18.8678 3.68991 18.9333 3.76791 18.9905L3.77103 18.9926L3.88751 19.0758C4.18183 19.2297 4.42415 19.4439 4.60823 19.7029L4.61239 19.7091C4.81103 19.9556 4.98575 20.2343 5.12615 20.5328L5.13655 20.5578L5.30295 20.9405C5.44335 21.3586 5.69815 21.708 6.03095 21.9607L6.03615 21.9649C6.34815 22.2082 6.72463 22.383 7.13543 22.462L7.15207 22.4641C7.49527 22.5306 7.89463 22.5722 8.30231 22.5806H8.30959C8.35639 22.5826 8.41047 22.5826 8.46559 22.5826C8.73703 22.5826 9.00327 22.5608 9.26327 22.5182L9.23519 22.5223L9.61791 22.4558C9.61791 22.878 9.62068 23.3696 9.62623 23.9305C9.63177 24.4914 9.63455 24.794 9.63455 24.8384V24.853C9.63455 25.0454 9.55135 25.218 9.41823 25.3376C9.29447 25.4302 9.13847 25.4863 8.96895 25.4863C8.89095 25.4863 8.81607 25.4749 8.74639 25.453L8.75159 25.4541C3.62543 23.6975 0.00622559 18.9198 0.00622559 13.2965C0.00622559 10.9378 0.642706 8.72776 1.75447 6.82872L1.72119 6.88904C2.85895 4.9432 4.43455 3.3676 6.32007 2.26208L6.38039 2.22984C8.18895 1.15448 10.3688 0.519043 12.6963 0.519043H12.7982H12.793V0.520083ZM4.84743 18.8927C4.88071 18.8151 4.84188 18.7485 4.73095 18.693C4.62001 18.6598 4.54791 18.6709 4.51463 18.7263C4.48135 18.804 4.52017 18.8705 4.63111 18.926C4.73095 18.9926 4.80305 18.9815 4.84743 18.8927ZM5.36431 19.4595C5.44196 19.4041 5.43087 19.3153 5.33103 19.1933C5.22009 19.0934 5.13135 19.0768 5.06479 19.1434C4.98713 19.1988 4.99823 19.2876 5.09807 19.4096C5.20831 19.5185 5.29705 19.5347 5.36431 19.4585V19.4595ZM5.86351 20.2083C5.96335 20.1307 5.96335 20.0253 5.86351 19.8922C5.77476 19.7479 5.68047 19.7147 5.58063 19.7923C5.48079 19.8478 5.48079 19.9476 5.58063 20.0918C5.68047 20.2361 5.77476 20.2749 5.86351 20.2083ZM6.56239 20.9082C6.65113 20.8195 6.62895 20.7141 6.49583 20.5921C6.36271 20.459 6.25177 20.4423 6.16303 20.5422C6.06319 20.6309 6.08537 20.7363 6.22959 20.8583C6.36271 20.9914 6.47364 21.0067 6.56239 20.9041V20.9082ZM7.51191 21.3242C7.54519 21.2022 7.47308 21.1135 7.29559 21.058C7.12919 21.0136 7.0238 21.0525 6.97943 21.1745C6.93505 21.2965 7.00716 21.3797 7.19575 21.4241C7.36215 21.4913 7.46753 21.4581 7.51191 21.3242ZM8.56127 21.4074C8.56127 21.2632 8.46697 21.2022 8.27839 21.2244C8.10089 21.2244 8.01215 21.2854 8.01215 21.4074C8.01215 21.5517 8.10644 21.6127 8.29503 21.5905C8.47252 21.5912 8.56127 21.5295 8.56127 21.4074ZM9.52743 21.241C9.50524 21.119 9.4054 21.0691 9.22791 21.0913C9.05041 21.1246 8.97276 21.2078 8.99495 21.3409C9.01713 21.474 9.11697 21.5184 9.29447 21.474C9.47196 21.4296 9.54892 21.352 9.52743 21.241Z" fill="currentColor"/>
</g>
<defs>
<clipPath id="clip0_5_179">
<rect width="26" height="26" fill="currentColor"/>
</clipPath>
</defs>
</svg>
