<svg width="12" height="12" viewBox="0 0 12 12" fill="none" xmlns="http://www.w3.org/2000/svg">
<g clip-path="url(#clip0_3_90)">
<path d="M11.25 6C11.2512 6.15381 11.2044 6.30417 11.1162 6.43018C11.028 6.55619 10.9027 6.65159 10.7578 6.70312L7.78406 7.78453L6.70312 10.7578C6.64984 10.9013 6.55392 11.0251 6.42823 11.1125C6.30253 11.2 6.1531 11.2468 6 11.2468C5.8469 11.2468 5.69746 11.2 5.57177 11.1125C5.44608 11.0251 5.35015 10.9013 5.29687 10.7578L4.21593 7.78406L1.24218 6.70312C1.09865 6.64984 0.974862 6.55392 0.887446 6.42823C0.800029 6.30253 0.753174 6.1531 0.753174 6C0.753174 5.8469 0.800029 5.69746 0.887446 5.57177C0.974862 5.44608 1.09865 5.35015 1.24218 5.29687L4.21593 4.21593L5.29687 1.24218C5.35015 1.09865 5.44608 0.974862 5.57177 0.887446C5.69746 0.800029 5.8469 0.753174 6 0.753174C6.1531 0.753174 6.30253 0.800029 6.42823 0.887446C6.55392 0.974862 6.64984 1.09865 6.70312 1.24218L7.78453 4.21593L10.7578 5.29687C10.9027 5.3484 11.028 5.4438 11.1162 5.56981C11.2044 5.69582 11.2512 5.84618 11.25 6Z" fill="currentColor"/>
</g>
<defs>
<clipPath id="clip0_3_90">
<rect width="12" height="12" fill="white"/>
</clipPath>
</defs>
</svg>
