<svg width="1100" height="1100" viewBox="0 0 1100 1100" fill="none" xmlns="http://www.w3.org/2000/svg">
<rect width="1100" height="1100" fill="#1A1A1A"/>
<path d="M566.909 788C520.089 788 478.74 777.94 442.86 757.82C406.98 737.263 378.757 709.271 358.192 673.843C338.064 637.977 328 597.081 328 551.156C328 504.356 338.064 463.242 358.192 427.814C378.757 391.948 406.98 363.955 442.86 343.836C478.74 323.279 520.089 313 566.909 313C591.412 313 615.259 317.155 638.45 325.465C661.641 333.338 682.862 344.273 702.115 358.269C721.368 372.266 736.901 388.23 748.715 406.163L704.74 436.343C695.989 422.346 684.175 409.881 669.298 398.946C654.421 387.574 638.012 378.826 620.072 372.703C602.57 366.58 584.849 363.518 566.909 363.518C531.466 363.518 499.962 371.61 472.395 387.793C444.829 403.539 423.17 425.408 407.417 453.401C391.665 481.393 383.789 513.978 383.789 551.156C383.789 587.022 391.446 619.169 406.761 647.599C422.513 675.592 444.173 697.68 471.739 713.863C499.743 730.046 531.466 738.138 566.909 738.138C596.663 738.138 622.916 732.015 645.67 719.768C668.86 707.084 687.019 689.807 700.146 667.938C713.273 645.631 719.836 620.044 719.836 591.177L773 587.24C773 627.48 764.249 662.689 746.746 692.869C729.244 722.611 704.959 746.011 673.892 763.069C642.825 779.69 607.164 788 566.909 788ZM606.945 593.801V545.907H773V589.209L746.746 593.801H606.945Z" fill="white"/>
</svg>
