<svg xmlns="http://www.w3.org/2000/svg" width="16" height="16" fill="none"><path fill="#00B6FF" fill-rule="evenodd" d="M8.525 15.123a1 1 0 0 0-1.05 0l-.326.202a1 1 0 0 1-1.35-.287l-.217-.317a1 1 0 0 0-.959-.427l-.38.051a1 1 0 0 1-1.117-.811l-.069-.378a1 1 0 0 0-.702-.78l-.368-.107a1 1 0 0 1-.69-1.196l.09-.373a1 1 0 0 0-.324-.998l-.292-.248A1 1 0 0 1 .626 8.08l.235-.304a1 1 0 0 0 .11-1.043l-.167-.346a1 1 0 0 1 .427-1.313l.338-.182a1 1 0 0 0 .524-.91l-.01-.383a1 1 0 0 1 .923-1.025l.382-.03a1 1 0 0 0 .85-.616l.145-.355a1 1 0 0 1 1.261-.562l.362.13A1 1 0 0 0 7.032.922L7.31.658a1 1 0 0 1 1.38 0l.278.265a1 1 0 0 0 1.026.218l.361-.129a1 1 0 0 1 1.262.562l.145.355a1 1 0 0 0 .85.616l.382.03a1 1 0 0 1 .924 1.025l-.011.384a1 1 0 0 0 .524.909l.338.182a1 1 0 0 1 .427 1.313l-.166.346a1 1 0 0 0 .11 1.043l.233.304a1 1 0 0 1-.144 1.373l-.292.248a1 1 0 0 0-.324.998l.09.373a1 1 0 0 1-.69 1.196l-.368.108a1 1 0 0 0-.702.78l-.07.377a1 1 0 0 1-1.116.811l-.38-.05a1 1 0 0 0-.959.426l-.216.317a1 1 0 0 1-1.35.287l-.327-.202Z" clip-rule="evenodd"></path><path stroke="#fff" stroke-width="2" d="m5.07 7.563 2.121 2.121 4.243-4.243"></path></svg>